PathFileType	4	(X/Y/Z)	s03c0403.trc
DataRate	CameraRate	NumFrames	NumMarkers	Units	OrigDataRate	OrigDataStartFrame	OrigNumFrames
200	200	4	52	mm	200	250	2000
Frame#	Time	racr			lacr			c7			jug			rlel			rdr			llel			ldr			s2			lic			ric			lasi			rasi			rpsi			lpsi			rgt			lgt			rth1			rth2			rth3			rth4			rlfc			rmfc			rsh1			rsh2			rsh3			rsh4			rlmal			rmmal			rcal			rtoe			rmt5			rmt1			lth1			lth2			lth4			lth3			llfc			lmfc			lsh1			lsh2			lsh3			lsh4			llmal			lmmal			lcal			ltoe			lmt1			lmt5			SBIKE			LBIKE			RBIKE			
		X1	Y1	Z1	X2	Y2	Z2	X3	Y3	Z3	X4	Y4	Z4	X5	Y5	Z5	X6	Y6	Z6	X7	Y7	Z7	X8	Y8	Z8	X9	Y9	Z9	X10	Y10	Z10	X11	Y11	Z11	X12	Y12	Z12	X13	Y13	Z13	X14	Y14	Z14	X15	Y15	Z15	X16	Y16	Z16	X17	Y17	Z17	X18	Y18	Z18	X19	Y19	Z19	X20	Y20	Z20	X21	Y21	Z21	X22	Y22	Z22	X23	Y23	Z23	X24	Y24	Z24	X25	Y25	Z25	X26	Y26	Z26	X27	Y27	Z27	X28	Y28	Z28	X29	Y29	Z29	X30	Y30	Z30	X31	Y31	Z31	X32	Y32	Z32	X33	Y33	Z33	X34	Y34	Z34	X35	Y35	Z35	X36	Y36	Z36	X37	Y37	Z37	X38	Y38	Z38	X39	Y39	Z39	X40	Y40	Z40	X41	Y41	Z41	X42	Y42	Z42	X43	Y43	Z43	X44	Y44	Z44	X45	Y45	Z45	X46	Y46	Z46	X47	Y47	Z47	X48	Y48	Z48	X49	Y49	Z49	X50	Y50	Z50	X51	Y51	Z51	X52	Y52	Z52	
250	1.2500	504.477653	1450.137849	-94.506638	500.140593	1471.307045	-390.383449	414.819850	1520.385430	-242.251378	466.346832	1357.583624	-243.500157	527.995410	1185.767611	26.128959	739.674016	991.895072	-28.244423	535.867113	1204.532208	-497.183300	734.754776	981.163888	-435.906328	-86.721006	1205.823580	-256.981133	105.537527	1205.590478	-433.777702	84.898439	1235.593124	-70.251845	113.223737	1131.395408	-389.318262	103.182685	1173.108580	-111.691142	-56.941172	1257.208935	-215.248202	-48.298935	1249.678321	-296.565793	25.529279	1161.933962	-48.808256	33.433875	1094.638429	-445.711988	145.968672	1072.917784	-26.053247	234.755910	1068.374849	-22.512402	308.697600	1023.295904	-22.109666	246.130804	1100.681541	-37.591131	426.959462	957.667358	-41.058786	436.737759	943.667802	-166.606303	362.063547	805.666875	-25.550600	343.556912	720.279705	-44.032131	283.461841	655.387054	-49.346229	370.378060	710.898019	-70.208931	218.816819	539.571687	-74.610463	244.738776	554.711299	-162.403653	152.137620	492.317670	-117.009795	462.235060	493.639330	-114.866604	343.448569	473.331884	-45.860889	368.987797	491.156407	-160.184209	101.417067	950.684427	-464.886308	159.984978	886.548410	-465.423909	192.228126	903.836142	-461.009798	179.666904	800.124928	-455.080306	252.079183	690.644078	-436.516135	255.147709	682.325896	-313.093846	154.988637	546.216613	-454.959391	138.104984	465.424375	-435.485618	77.004475	397.901396	-425.270667	166.017484	453.946914	-409.804781	12.949394	287.218365	-401.939928	0.000000	0.000000	-0.000000	-57.909880	245.447958	-349.962181	249.683999	211.197203	-359.724068	157.043837	214.872869	-313.632595	125.944585	197.281013	-427.951664	-214.748813	945.059750	-233.386067	-9.388427	80.587479	-433.369626	-9.569559	80.814398	-33.009505	
251	1.2550	505.800088	1449.774311	-94.651681	501.331601	1470.661504	-390.244481	415.809619	1519.439343	-242.272786	467.403729	1356.615275	-243.415975	528.491880	1185.786634	27.687432	739.640745	992.068973	-28.633216	537.224025	1204.192511	-497.466822	734.559051	981.286458	-435.546432	-86.776071	1206.077506	-257.169721	105.438936	1205.390167	-433.490217	84.730280	1235.392507	-70.386536	113.008724	1131.501241	-389.366267	103.015534	1173.181753	-111.859385	-56.750314	1257.335765	-215.423538	-48.113632	1249.796095	-296.744144	25.140840	1162.038923	-48.938168	33.142254	1094.657344	-445.919823	145.487681	1073.127281	-26.081915	234.282963	1068.750684	-22.355700	308.253985	1023.681239	-22.210598	245.611748	1100.974668	-37.713750	426.549775	957.998904	-40.994654	436.475465	943.955570	-166.520379	361.878314	805.911990	-25.495061	343.502993	720.502919	-43.991163	283.453748	655.536211	-49.347886	370.348668	711.123643	-70.180014	218.935056	539.714510	-74.602330	244.916940	554.826753	-162.366922	152.221384	492.524002	-117.009442	462.355768	493.514201	-114.887407	343.553533	473.329624	-45.857062	369.100086	491.101010	-160.205105	101.313611	950.758829	-465.053553	160.055622	886.784742	-465.622582	192.260375	904.154599	-461.212192	179.947582	800.371230	-455.307955	252.642651	691.050096	-436.689823	255.638882	682.865150	-313.212160	155.554287	546.591867	-455.069721	138.680029	465.942112	-435.600255	77.552556	398.357659	-425.231510	166.565515	454.357574	-409.826650	13.432434	287.749879	-401.985120	0.000000	0.000000	-0.000000	-57.527522	246.304651	-350.029463	249.849841	210.895052	-359.725542	157.263008	214.839271	-313.626453	126.097544	197.428473	-427.959739	-214.790962	945.051663	-233.405903	-9.403216	80.588857	-433.361998	-9.585530	80.832636	-33.019890	
252	1.2600	507.144156	1449.087945	-94.710670	502.546852	1469.961317	-390.227438	416.927071	1518.377069	-242.243328	468.531771	1355.797116	-243.214644	528.984408	1185.801111	29.433321	739.571090	992.183897	-28.960426	536.949642	1203.682774	-498.928657	734.353783	981.441033	-435.239295	-86.857773	1206.313695	-257.347141	105.374688	1205.174753	-433.198260	84.595658	1235.216324	-70.502689	112.762617	1131.584322	-389.388549	102.783631	1173.244665	-111.948957	-56.556110	1257.505577	-215.644945	-47.896981	1249.949200	-296.931438	24.728552	1162.144895	-49.047821	32.836489	1094.709542	-446.149124	145.006357	1073.355947	-26.078223	233.768280	1069.154880	-22.241369	307.670865	1023.979025	-22.824463	245.027273	1101.281163	-37.780545	426.142466	958.375296	-40.956353	436.150000	944.354049	-166.435212	361.689368	806.200197	-25.447386	343.432723	720.802884	-43.930478	283.447547	655.713791	-49.344144	370.318513	711.521971	-70.090830	219.016427	539.833187	-74.439819	245.081316	554.959129	-162.352223	152.352919	492.730682	-116.995564	462.490271	493.373371	-114.922082	343.637514	473.341914	-45.866120	369.203424	491.077947	-160.215911	101.215598	950.866002	-465.181553	160.137280	887.035025	-465.800637	192.377554	904.277138	-461.047430	180.262467	800.701074	-455.529658	253.162446	691.516484	-436.886511	256.138810	683.447342	-313.446174	156.212025	547.023964	-455.169464	139.225395	466.415661	-435.567427	78.110480	398.773743	-425.282310	167.142171	454.741724	-409.851192	13.918934	288.337923	-401.969010	0.000000	0.000000	-0.000000	-57.200653	247.218384	-349.978830	250.041488	210.584869	-359.709990	157.560461	214.779030	-313.690086	126.283269	197.532334	-427.916624	-214.804799	945.022338	-233.433469	-9.411206	80.580197	-433.361173	-9.589169	80.782772	-33.030673	
253	1.2650	508.522125	1448.431433	-94.792696	503.820107	1469.186626	-390.152040	418.100128	1517.234715	-242.277817	469.765580	1354.697654	-243.115727	529.494866	1185.839836	31.396384	739.452036	992.298350	-29.261482	536.743718	1203.205671	-500.544393	734.176881	981.576076	-435.011944	-86.890685	1206.651834	-257.569654	105.353552	1204.945522	-432.909291	84.492677	1235.058913	-70.622397	112.531193	1131.679699	-389.463062	102.495386	1173.283658	-112.005847	-56.316046	1257.666104	-215.851427	-47.818749	1250.247149	-297.062208	24.308675	1162.233966	-49.164557	32.509130	1094.761091	-446.383495	144.415809	1073.553191	-26.128823	233.197797	1069.411545	-22.375175	307.171025	1024.324292	-22.785859	244.489705	1101.573243	-37.848743	425.754840	958.785800	-40.879109	435.800618	944.730795	-166.334907	361.464027	806.528598	-25.387463	343.325800	721.054473	-43.914269	283.428382	655.893005	-49.334287	370.257205	711.834238	-70.025541	219.124087	539.982057	-74.391323	245.235446	555.168798	-162.310673	152.454503	492.921886	-116.994000	462.621371	493.247833	-114.924591	343.734474	473.328861	-45.876987	369.308656	491.042924	-160.226524	101.095983	951.025494	-465.347962	160.212998	887.302123	-466.022643	192.408382	904.656665	-461.277012	180.543081	801.056064	-455.751395	253.718893	691.999413	-437.131000	256.707586	683.984427	-313.688283	156.759379	547.437737	-455.254924	139.787727	466.824195	-435.572071	78.672534	399.252675	-425.259838	167.740296	455.206821	-409.881960	14.400479	288.958557	-401.937500	0.000000	0.000000	-0.000000	-56.797873	248.148535	-349.964156	250.296796	210.134906	-359.721438	157.833591	214.754876	-313.674012	126.462378	197.674463	-427.895674	-214.839735	945.018087	-233.470520	-9.407480	80.575108	-433.364166	-9.558924	80.766987	-33.037615	
